<?xml version="1.0" encoding="utf-8"?>
<!-- Generator: Adobe Illustrator 24.0.0, SVG Export Plug-In . SVG Version: 6.00 Build 0)  -->
<svg version="1.1" id="Layer_1" xmlns="http://www.w3.org/2000/svg" xmlns:xlink="http://www.w3.org/1999/xlink" x="0px" y="0px"
	 viewBox="0 0 128 128" style="enable-background:new 0 0 128 128;" xml:space="preserve">
<style type="text/css">
	.st0{fill:#39FF14;}
	.st1{fill:#FBFFFA;}
</style>
<title>SpammerZ</title>
<path d="M16,0h96c8.8,0,16,7.2,16,16v96c0,8.8-7.2,16-16,16H16c-8.8,0-16-7.2-16-16V16C0,7.2,7.2,0,16,0z"/>
<path class="st0" d="M83.4,61.3c-2.8-1.4-5.8-2.3-8.7-3.3c-6.5-2.3-13-4.5-19.5-6.7c-1.9-0.7-2.7-2.1-2.4-4c0.3-1.6,1.6-2.6,3.5-2.6
	h20.8c-1.6,2.3-3.1,4.4-4.7,6.6c3.5,0,6.8,0,10.1,0c0.3,0,0.7-0.3,0.9-0.6c1.6-2.1,3.2-4.2,4.7-6.3c2.3-3.1,4.4-6.4,5.5-10.1
	c0.7-2.5,1.1-5,1-7.6c-0.3,0-0.5,0-0.8,0c-12.6,0-25.3,0-38,0c-3.4,0-6.6,0.7-9.6,2.2c-7.8,3.7-12.5,12-11.9,20.6
	c0.7,9.1,5.3,15.2,13.8,18.4c2.1,0.8,4.2,1.4,6.2,2.2c6.3,2.2,12.6,4.3,19,6.5c2.1,0.7,3,2.1,2.7,4.1c-0.3,1.7-1.6,2.6-3.7,2.6H51.1
	c1.6-2.3,3.1-4.4,4.7-6.6h-1c-2.3,0-4.7,0.1-7,0c-1.9-0.2-3.2,0.4-4.2,2c-2.3,3.6-5,6.9-7.3,10.6c-2.2,3.6-3,7.7-3.1,12.1H42
	c10.7,0,21.4,0.1,32.1-0.1c5.5-0.1,10.4-2.4,14.3-6.3c4.6-4.6,6.5-10.2,6.1-16.6C94,70.7,90.4,64.8,83.4,61.3z M75.1,94.2
	c-0.8,0.1-1.6,0.2-2.4,0.2c-10.1,0-20.3,0-30.4,0h-0.9c0.9-1.5,1.6-2.7,2.4-4c0.2-0.2,0.7-0.3,1.1-0.3c9.4,0,18.9,0,28.3,0
	c2.6,0,4.8-0.9,6.7-2.7c5.2-4.7,4.3-14.6-3.3-17.2c-8.6-2.9-17.2-5.9-25.8-8.9c-6.8-2.4-9.7-7.9-9.4-13.7
	c0.3-7.2,4.7-12.4,11.4-13.7c1-0.2,2-0.3,3.1-0.3c9.9,0,19.8,0,29.8,0c0.2,0,0.5,0,1,0.1c-0.9,1.4-1.6,2.7-2.5,3.9
	c-0.2,0.2-0.7,0.3-1.1,0.3c-9,0-17.9,0-26.8,0c-1.6,0-3.1,0.3-4.6,1c-3.4,1.5-6.1,5.4-5.8,10.1c0.3,3.9,2.7,7.4,6.6,8.7
	c8.5,3,17,5.9,25.5,8.8c5.2,1.8,8.4,5.3,9.4,10.7C88.9,85.3,83.3,93,75.1,94.2z"/>
<path class="st1" d="M75.1,94.2c-0.8,0.1-1.6,0.2-2.4,0.2c-10.1,0-20.3,0-30.4,0h-0.9c0.9-1.5,1.6-2.7,2.4-4
	c0.2-0.2,0.7-0.3,1.1-0.3c9.4,0,18.9,0,28.3,0c2.6,0,4.8-0.9,6.7-2.7c5.2-4.7,4.3-14.6-3.3-17.2c-8.6-2.9-17.2-5.9-25.8-8.9
	c-6.8-2.4-9.7-7.9-9.4-13.7c0.3-7.2,4.7-12.4,11.4-13.7c1-0.2,2-0.3,3.1-0.3c9.9,0,19.8,0,29.8,0c0.2,0,0.5,0,1,0.1
	c-0.9,1.4-1.6,2.7-2.5,3.9c-0.2,0.2-0.7,0.3-1.1,0.3c-9,0-17.9,0-26.8,0c-1.6,0-3.1,0.3-4.6,1c-3.4,1.5-6.1,5.4-5.8,10.1
	c0.3,3.9,2.7,7.4,6.6,8.7c8.5,3,17,5.9,25.5,8.8c5.2,1.8,8.4,5.3,9.4,10.7C88.9,85.3,83.3,93,75.1,94.2z"/>
</svg>
