<?xml version="1.0" encoding="utf-8"?>
<!-- Generator: Adobe Illustrator 24.0.0, SVG Export Plug-In . SVG Version: 6.00 Build 0)  -->
<svg version="1.1" id="Layer_1" xmlns="http://www.w3.org/2000/svg" xmlns:xlink="http://www.w3.org/1999/xlink" x="0px" y="0px"
	 viewBox="0 0 16 16" style="enable-background:new 0 0 16 16;" xml:space="preserve">
<style type="text/css">
	.st0{fill:#39FF14;}
	.st1{fill:#FBFFFA;}
</style>
<title>SpammerZ</title>
<g>
	<path d="M2,0h12c1.1,0,2,0.9,2,2v12c0,1.1-0.9,2-2,2H2c-1.1,0-2-0.9-2-2V2C0,0.9,0.9,0,2,0z"/>
	<path class="st0" d="M10.4,7.7c-0.3-0.2-0.7-0.3-1.1-0.4C8.5,7,7.7,6.7,6.9,6.4C6.7,6.3,6.6,6.2,6.6,5.9c0-0.2,0.2-0.3,0.4-0.3h2.6
		C9.4,5.9,9.3,6.1,9.1,6.4c0.4,0,0.9,0,1.3,0c0,0,0.1,0,0.1-0.1c0.2-0.3,0.4-0.5,0.6-0.8c0.3-0.4,0.6-0.8,0.7-1.3
		c0.1-0.3,0.1-0.6,0.1-0.9c0,0-0.1,0-0.1,0c-1.6,0-3.2,0-4.7,0c-0.4,0-0.8,0.1-1.2,0.3c-1,0.5-1.6,1.5-1.5,2.6C4.4,7.3,5,8.1,6,8.5
		c0.3,0.1,0.5,0.2,0.8,0.3C7.6,9,8.4,9.3,9.2,9.6c0.3,0.1,0.4,0.3,0.3,0.5c0,0.2-0.2,0.3-0.5,0.3H6.4C6.6,10.1,6.8,9.9,7,9.6H6.8
		c-0.3,0-0.6,0-0.9,0c-0.2,0-0.4,0.1-0.5,0.3c-0.3,0.4-0.6,0.9-0.9,1.3c-0.3,0.5-0.4,1-0.4,1.5h1.1c1.3,0,2.7,0,4,0
		c0.7,0,1.3-0.3,1.8-0.8c0.6-0.6,0.8-1.3,0.8-2.1C11.7,8.8,11.3,8.1,10.4,7.7z M9.4,11.8c-0.1,0-0.2,0-0.3,0c-1.3,0-2.5,0-3.8,0H5.2
		c0.1-0.2,0.2-0.3,0.3-0.5c0,0,0.1,0,0.1,0c1.2,0,2.4,0,3.5,0c0.3,0,0.6-0.1,0.8-0.3c0.7-0.6,0.5-1.8-0.4-2.1
		C8.5,8.4,7.4,8.1,6.4,7.7C5.5,7.4,5.2,6.7,5.2,6c0-0.9,0.6-1.5,1.4-1.7c0.1,0,0.3,0,0.4,0c1.2,0,2.5,0,3.7,0c0,0,0.1,0,0.1,0
		c-0.1,0.2-0.2,0.3-0.3,0.5c0,0-0.1,0-0.1,0c-1.1,0-2.2,0-3.4,0c-0.2,0-0.4,0-0.6,0.1C6,5,5.7,5.5,5.7,6.1c0,0.5,0.3,0.9,0.8,1.1
		c1.1,0.4,2.1,0.7,3.2,1.1c0.6,0.2,1.1,0.7,1.2,1.3C11.1,10.7,10.4,11.6,9.4,11.8z"/>
	<path class="st1" d="M9.4,11.8c-0.1,0-0.2,0-0.3,0c-1.3,0-2.5,0-3.8,0H5.2c0.1-0.2,0.2-0.3,0.3-0.5c0,0,0.1,0,0.1,0
		c1.2,0,2.4,0,3.5,0c0.3,0,0.6-0.1,0.8-0.3c0.7-0.6,0.5-1.8-0.4-2.1C8.5,8.4,7.4,8.1,6.4,7.7C5.5,7.4,5.2,6.7,5.2,6
		c0-0.9,0.6-1.5,1.4-1.7c0.1,0,0.3,0,0.4,0c1.2,0,2.5,0,3.7,0c0,0,0.1,0,0.1,0c-0.1,0.2-0.2,0.3-0.3,0.5c0,0-0.1,0-0.1,0
		c-1.1,0-2.2,0-3.4,0c-0.2,0-0.4,0-0.6,0.1C6,5,5.7,5.5,5.7,6.1c0,0.5,0.3,0.9,0.8,1.1c1.1,0.4,2.1,0.7,3.2,1.1
		c0.6,0.2,1.1,0.7,1.2,1.3C11.1,10.7,10.4,11.6,9.4,11.8z"/>
</g>
</svg>
