<?xml version="1.0" encoding="utf-8"?>
<!-- Generator: Adobe Illustrator 24.0.0, SVG Export Plug-In . SVG Version: 6.00 Build 0)  -->
<svg version="1.1" id="Layer_1" xmlns="http://www.w3.org/2000/svg" xmlns:xlink="http://www.w3.org/1999/xlink" x="0px" y="0px"
	 viewBox="0 0 48 48" style="enable-background:new 0 0 48 48;" xml:space="preserve">
<style type="text/css">
	.st0{fill:#39FF14;}
	.st1{fill:#FBFFFA;}
</style>
<title>SpammerZ</title>
<g>
	<path d="M6,0h36c3.3,0,6,2.7,6,6v36c0,3.3-2.7,6-6,6H6c-3.3,0-6-2.7-6-6V6C0,2.7,2.7,0,6,0z"/>
	<path class="st0" d="M31.3,23c-1-0.5-2.2-0.8-3.3-1.2c-2.4-0.9-4.9-1.7-7.3-2.5c-0.7-0.2-1-0.8-0.9-1.5c0.1-0.6,0.6-1,1.3-1h7.8
		c-0.6,0.9-1.2,1.6-1.8,2.5c1.3,0,2.6,0,3.8,0c0.1,0,0.3-0.1,0.3-0.2c0.6-0.8,1.2-1.6,1.8-2.3c0.9-1.2,1.7-2.4,2.1-3.8
		c0.3-0.9,0.4-1.9,0.4-2.8c-0.1,0-0.2,0-0.3,0c-4.7,0-9.5,0-14.2,0c-1.3,0-2.5,0.3-3.6,0.8c-2.9,1.4-4.7,4.5-4.5,7.7
		c0.2,3.4,2,5.7,5.2,6.9c0.8,0.3,1.6,0.5,2.3,0.8c2.4,0.8,4.7,1.6,7.1,2.4c0.8,0.3,1.1,0.8,1,1.5c-0.1,0.6-0.6,1-1.4,1h-8
		c0.6-0.8,1.2-1.6,1.8-2.5h-0.4c-0.9,0-1.7,0.1-2.6,0c-0.7-0.1-1.2,0.2-1.6,0.8c-0.9,1.3-1.9,2.6-2.7,4c-0.8,1.4-1.1,2.9-1.2,4.5
		h3.3c4,0,8,0,12,0c2.1,0,3.9-0.9,5.4-2.4c1.7-1.7,2.5-3.8,2.3-6.2C35.2,26.5,33.9,24.3,31.3,23z M28.2,35.3c-0.3,0-0.6,0.1-0.9,0.1
		c-3.8,0-7.6,0-11.4,0h-0.3c0.3-0.5,0.6-1,0.9-1.5c0.1-0.1,0.3-0.1,0.4-0.1c3.5,0,7.1,0,10.6,0c1,0,1.8-0.3,2.5-1
		c2-1.8,1.6-5.5-1.2-6.4c-3.2-1.1-6.4-2.2-9.7-3.3c-2.5-0.9-3.6-3-3.5-5.1c0.1-2.7,1.8-4.6,4.3-5.1c0.4-0.1,0.8-0.1,1.1-0.1
		c3.7,0,7.4,0,11.2,0c0.1,0,0.2,0,0.4,0c-0.3,0.5-0.6,1-0.9,1.5c-0.1,0.1-0.3,0.1-0.4,0.1c-3.4,0-6.7,0-10.1,0
		c-0.6,0-1.2,0.1-1.7,0.4c-1.3,0.6-2.3,2-2.2,3.8c0.1,1.5,1,2.8,2.5,3.3c3.2,1.1,6.4,2.2,9.6,3.3c1.9,0.7,3.2,2,3.5,4
		C33.3,32,31.2,34.9,28.2,35.3z"/>
	<path class="st1" d="M28.2,35.3c-0.3,0-0.6,0.1-0.9,0.1c-3.8,0-7.6,0-11.4,0h-0.3c0.3-0.5,0.6-1,0.9-1.5c0.1-0.1,0.3-0.1,0.4-0.1
		c3.5,0,7.1,0,10.6,0c1,0,1.8-0.3,2.5-1c2-1.8,1.6-5.5-1.2-6.4c-3.2-1.1-6.4-2.2-9.7-3.3c-2.5-0.9-3.6-3-3.5-5.1
		c0.1-2.7,1.8-4.6,4.3-5.1c0.4-0.1,0.8-0.1,1.1-0.1c3.7,0,7.4,0,11.2,0c0.1,0,0.2,0,0.4,0c-0.3,0.5-0.6,1-0.9,1.5
		c-0.1,0.1-0.3,0.1-0.4,0.1c-3.4,0-6.7,0-10.1,0c-0.6,0-1.2,0.1-1.7,0.4c-1.3,0.6-2.3,2-2.2,3.8c0.1,1.5,1,2.8,2.5,3.3
		c3.2,1.1,6.4,2.2,9.6,3.3c1.9,0.7,3.2,2,3.5,4C33.3,32,31.2,34.9,28.2,35.3z"/>
</g>
</svg>
