<svg id="Layer_1" data-name="Layer 1" xmlns="http://www.w3.org/2000/svg" viewBox="0 0 1080 1080"><defs><style>.cls-1{fill:#73bf44;}</style></defs><title>SpammerZ</title><path class="cls-1" d="M200.17,952.31c1-48.16,9.3-93.66,33.93-133.6,24.81-40.22,54.49-77.42,80.51-117,11.72-17.82,25.36-24.31,46.48-22.65,25.52,2,51.32.47,77,.47h11.49c-17.84,25-34.44,48.25-52.23,73.19H633.17c23.21,0,38.06-10.4,41.13-28.84,3.75-22.47-6.06-37.61-29.43-45.64q-104.79-36-209.54-72.06c-23-7.9-46.17-15.22-68.92-23.72-94.1-35.15-145.35-103-152.58-203.14C206.94,284,260,192.8,345.65,151.48c33.55-16.18,69.25-23.7,106.43-23.74q209.64-.22,419.29-.13c2.53,0,5,.39,8.24.66,1.28,29-3.09,56.61-11.08,83.84-12.28,41.81-35.38,77.69-61.24,112.08-17.37,23.1-34.6,46.3-52.2,69.23-2.29,3-6.41,6.44-9.73,6.48-36.69.46-73.38.29-112.05.29,17.52-24.39,34.2-47.59,52.36-72.86H674.94q-109.7,0-219.4,0c-20.67,0-35,10.8-38.37,28.68-3.9,20.6,5.34,36.52,26.33,43.8C515.14,424.64,587,449,658.53,474c32.4,11.32,65.78,21,96.31,36.27,76.8,38.36,116.25,103.31,122.47,188,5.19,70.68-16.73,132.61-67.2,183.13-43.58,43.62-97,68.54-158.35,69.67-118.27,2.18-236.61,1.07-354.91,1.29C265,952.36,233.23,952.31,200.17,952.31Zm91.14-76.69h9.62q167.74,0,335.47-.14a194.7,194.7,0,0,0,26.18-2A159.73,159.73,0,0,0,798.1,685.77c-11.26-60.3-47.19-98.73-104.31-118.5-94-32.54-188.1-64.73-282-97.51-42.91-15-70.39-53.1-73.08-96.46-3.26-52.58,26.36-94.81,64.34-111.78a122.81,122.81,0,0,1,51-10.48q148.23.22,296.46-.09c4.23,0,10.5-.43,12.35-3.08,9.35-13.37,17.55-27.54,27.12-43-5.75-.35-8.29-.64-10.83-.64q-164.32.06-328.65.33a171.3,171.3,0,0,0-33.74,3.84c-73.15,15.09-121.86,72.2-125.5,151.76-2.93,64,29,125.29,104,151.31,94.89,32.95,189.68,66.22,284.88,98.28C764,638,774.32,747.66,716.89,799.41c-21.09,19-45.7,29.3-74.27,29.31q-156.53.06-313,.16c-4.19,0-10.46.52-12.22,3.16C308.48,845.38,300.77,859.5,291.31,875.62Z"/><path d="M291.31,875.62c9.46-16.12,17.17-30.24,26.05-43.58,1.76-2.64,8-3.16,12.22-3.16q156.51-.25,313-.16c28.57,0,53.18-10.31,74.27-29.31C774.32,747.66,764,638,680.13,609.76c-95.2-32.06-190-65.33-284.88-98.28-74.94-26-106.89-87.33-104-151.31,3.64-79.56,52.35-136.67,125.5-151.76a171.3,171.3,0,0,1,33.74-3.84q164.33-.51,328.65-.33c2.54,0,5.08.29,10.83.64-9.57,15.45-17.77,29.62-27.12,43-1.85,2.65-8.12,3.07-12.35,3.08q-148.23.26-296.46.09a122.81,122.81,0,0,0-51,10.48c-38,17-67.6,59.2-64.34,111.78,2.69,43.36,30.17,81.49,73.08,96.46,93.9,32.78,188,65,282,97.51,57.12,19.77,93.05,58.2,104.31,118.5A159.73,159.73,0,0,1,662.58,873.44a194.7,194.7,0,0,1-26.18,2q-167.73.22-335.47.14Z"/></svg>